# xmcd
#
# Track frame offsets: 
#        150
#        15622
#        32787
#
# Disc length: 667 seconds
#
# Revision: 4
# Processed by: cddbd v1.5.1PL0 Copyright (c) Steve Scherf et al.
# Submitted via: ExactAudioCopy v0.90b4
#
DISCID=1a029903
DTITLE=Magic Car - Three Cornered Hat
DYEAR=2001
DGENRE=Country
TTITLE0=Three Cornered Hat
TTITLE1=Bob Mitchum
TTITLE2=Yellow Main Sequence
EXTD=
EXTT0=
EXTT1=
EXTT2=
PLAYORDER=
